<?xml version="1.0" encoding="utf-8"?>
<!-- Generator: Adobe Illustrator 28.0.0, SVG Export Plug-In . SVG Version: 6.00 Build 0)  -->
<svg version="1.1" xmlns="http://www.w3.org/2000/svg" xmlns:xlink="http://www.w3.org/1999/xlink" x="0px" y="0px"
	 viewBox="0 0 1280 1024" style="enable-background:new 0 0 1280 1024;" xml:space="preserve">
<style type="text/css">
	.st0{fill:#FFFFFF;}
	.st1{fill:#CC162E;}
	.st2{fill:#FDFDFD;}
	.st3{fill:#0B2240;}
	.st4{fill:none;}
</style>
<g id="Layer_1">
	<path class="st0" d="M472.5,203.77c14,12.73,28,80.73,14,82.73c-6.75-18.55-31.1-58.29-59.53-75.93C418,205,414,206,411,203
		c-8,6-15.18,1.39-24.5,4.5c-7.5,2.5-15,9-19,12s-5,5-12-1C344,218,344,209,344,209c14-6,37.5-7.5,30.5-27.5s-19-37-38-56
		c-28-8-52-16-49-21c22.3,0,79.84,7.99,97.91,20.32c1.03,0.7,1.73,1.78,2.01,3c3.88,16.98,8.44,41.34,32.08,45.68c18-4,15-3,21,1
		c3,1,7,2,7,2s-8,0-9,3s-6,4-8,5c-2,12,25,18,42,19"/>
	<path class="st0" d="M894,278c9-29,18-61,67-91c9.96-6.1,20-15,32-25c4,6-3,15-8,21s-6,14-8,16s-23.12,16.61-24,21c-1,5,0,15-16,37
		c-3,9,2,16-8.5,30.5c15.5,2.5,46-3,53.5-10.5c-1,19-18.5,25.5-25.5,26.5s-8-9-30,6c-18,10-18.5,9.5-36.5,13.5
		c-11.49,2.55-18.5-7.5-27.5,19.5c-6-17-2-34,12-36c-16-7-53-17-65-18c-14-2-29-19-29-19c27,4,23,7,31,8s54-6,79,10
		C892.5,283.5,894,278,894,278z"/>
	<rect x="460" y="400" class="st1" width="369" height="250"/>
	<polygon class="st2" points="821,501 821,554 622,554 622,642 568,642 568,554 468,554 468,501 568,501 568,408 622,408 622,501 	
		"/>
	<polygon class="st3" points="821,514 821,541 608,541 608,642 582,642 582,541 468,541 468,514 582,514 582,408 608,408 608,514 	
		"/>
	<path id="SVGID_x5F_1_x5F_" class="st4" d="M8.14,320C-121,1091,1418,1074,1291,320"/>
	<text>	<textPath  xlink:href="#SVGID_x5F_1_x5F_" startOffset="18.3655%">
<tspan  style="fill:#FFFFFF;stroke:#FFFFFF;stroke-width:4;stroke-miterlimit:10; font-family:'LucidaHandwriting-Italic'; font-size:145px;">JS Arctic Sailing</tspan>	</textPath>
</text>
	<polyline class="st4" points="859.21,659.21 859.21,849.17 1213.09,849.17 1213.09,659.21 	"/>
</g>
<g id="Layer_2">
</g>
</svg>
